<?xml version="1.0" encoding="UTF-8" standalone="no"?>
<svg
   xmlns:dc="http://purl.org/dc/elements/1.1/"
   xmlns:cc="http://creativecommons.org/ns#"
   xmlns:rdf="http://www.w3.org/1999/02/22-rdf-syntax-ns#"
   xmlns:svg="http://www.w3.org/2000/svg"
   xmlns="http://www.w3.org/2000/svg"
   xmlns:sodipodi="http://sodipodi.sourceforge.net/DTD/sodipodi-0.dtd"
   xmlns:inkscape="http://www.inkscape.org/namespaces/inkscape"
   version="1.0"
   width="28"
   height="28.000002"
   viewBox="0 0 22.4 22.400002"
   preserveAspectRatio="xMidYMid meet"
   id="svg2"
   inkscape:version="0.91 r13725"
   sodipodi:docname="Untitled-1-2.svg">
  <defs
     id="defs26">
    <inkscape:path-effect
       effect="sketch"
       id="path-effect4160"
       is_visible="true"
       nbiter_approxstrokes="5"
       strokelength="100"
       strokelength_rdm="0.3;1"
       strokeoverlap="0.3"
       strokeoverlap_rdm="0.3;1"
       ends_tolerance="0.1;1"
       parallel_offset="5;1"
       tremble_size="5;1"
       tremble_frequency="1"
       nbtangents="5"
       tgt_places_rdmness="1;1"
       tgtscale="10"
       tgtlength="100"
       tgtlength_rdm="0.3;1" />
  </defs>
  <sodipodi:namedview
     pagecolor="#ffffff"
     bordercolor="#666666"
     borderopacity="1"
     objecttolerance="10"
     gridtolerance="10"
     guidetolerance="10"
     inkscape:pageopacity="0"
     inkscape:pageshadow="2"
     inkscape:window-width="1285"
     inkscape:window-height="804"
     id="namedview24"
     showgrid="false"
     inkscape:zoom="11.8"
     inkscape:cx="19.83932"
     inkscape:cy="6.6104145"
     inkscape:window-x="0"
     inkscape:window-y="0"
     inkscape:window-maximized="0"
     inkscape:current-layer="svg2"
     fit-margin-top="0"
     fit-margin-left="0"
     fit-margin-right="0"
     fit-margin-bottom="0"
     units="px" />
  <metadata
     id="metadata4">
Created by potrace 1.13, written by Peter Selinger 2001-2015
<rdf:RDF>
  <cc:Work
     rdf:about="">
    <dc:format>image/svg+xml</dc:format>
    <dc:type
       rdf:resource="http://purl.org/dc/dcmitype/StillImage" />
    <dc:title></dc:title>
    <cc:license
       rdf:resource="" />
  </cc:Work>
</rdf:RDF>
</metadata>
  <g
     transform="matrix(0.00461098,0,0,-0.00638295,-0.97764909,27.957321)"
     id="g6"
     style="fill:#000000;stroke:none">
    <path
       d="m 2198,4350 c -15,-15 -52,-42 -82,-59 -56,-33 -129,-104 -148,-146 -10,-22 -8,-30 11,-55 l 22,-30 -26,-10 c -15,-6 -31,-10 -36,-10 -46,0 -141,-86 -175,-158 -40,-85 -39,-176 4,-258 30,-60 89,-121 144,-150 46,-24 131,-29 189,-10 74,25 91,17 126,-56 17,-35 33,-73 37,-85 15,-48 47,-34 91,41 41,71 141,149 225,176 37,12 83,21 101,20 94,-5 92,11 -16,121 -47,47 -85,93 -85,100 0,8 10,34 22,59 15,33 21,65 22,120 1,138 -56,241 -188,335 -34,24 -70,53 -80,64 -15,17 -31,21 -75,21 -48,-1 -60,-5 -83,-30 z"
       id="path8"
       inkscape:connector-curvature="0" />
    <path
       d="m 2562,3429 c -67,-33 -119,-86 -160,-164 -24,-45 -27,-60 -27,-155 0,-98 2,-109 30,-158 37,-67 89,-122 151,-158 40,-23 62,-29 134,-32 73,-4 92,-1 133,18 69,33 139,100 178,172 32,59 34,69 34,158 -1,82 -4,102 -27,150 -32,66 -104,139 -172,174 -41,22 -62,26 -131,26 -71,0 -90,-4 -143,-31 z"
       id="path10"
       inkscape:connector-curvature="0" />
    <path
       d="m 4080,3288 c -101,-48 -114,-50 -181,-27 -89,31 -104,22 -50,-29 75,-71 167,-80 277,-26 52,25 69,29 142,28 45,-1 82,2 82,7 0,13 -30,39 -71,59 -56,29 -121,25 -199,-12 z"
       id="path12"
       inkscape:connector-curvature="0" />
    <path
       d="m 490,3181 c -38,-8 -152,-52 -160,-62 -3,-3 -18,-13 -35,-22 -31,-15 -95,-77 -81,-77 4,0 47,14 94,31 50,18 117,33 159,36 65,5 76,3 135,-26 34,-17 90,-54 123,-82 85,-73 154,-103 235,-103 112,0 200,34 291,113 56,48 48,73 -10,32 -41,-29 -138,-54 -185,-47 -80,11 -115,27 -198,89 -139,105 -171,120 -258,123 -41,2 -91,-1 -110,-5 z"
       id="path14"
       inkscape:connector-curvature="0" />
    <path
       d="m 4150,3105 c -30,-19 -72,-40 -92,-45 -44,-12 -47,-22 -16,-44 34,-24 57,-20 132,24 38,22 79,43 92,46 33,8 41,25 19,41 -31,22 -77,15 -135,-22 z"
       id="path16"
       inkscape:connector-curvature="0" />
    <path
       d="m 1515,3046 c -59,-19 -108,-50 -220,-140 -140,-112 -185,-131 -305,-131 -67,0 -111,6 -150,19 -55,19 -181,78 -212,99 -13,9 -20,9 -30,-1 -39,-39 241,-201 411,-237 185,-39 286,-9 471,139 132,106 219,140 338,134 86,-5 119,-18 243,-95 65,-41 82,-19 27,34 -81,76 -234,159 -338,182 -62,14 -187,12 -235,-3 z"
       id="path18"
       inkscape:connector-curvature="0" />
    <path
       d="m 4580,3030 c -11,-11 -20,-28 -20,-38 0,-33 -29,-59 -89,-81 -101,-37 -192,-133 -241,-254 -12,-32 -31,-62 -41,-68 -24,-13 -40,-44 -33,-63 5,-12 29,-16 127,-18 74,-2 122,-7 121,-13 -2,-26 -104,-64 -229,-86 -112,-20 -164,-23 -380,-24 -157,0 -289,5 -353,14 -70,9 -107,10 -114,3 -6,-6 0,-33 21,-80 52,-117 62,-285 25,-403 -28,-87 -4,-99 141,-69 338,70 704,271 1065,585 48,41 87,67 109,71 18,4 112,5 207,2 l 174,-5 0,43 c 0,36 -3,43 -22,46 -23,3 -26,8 -74,112 -45,98 -125,172 -227,211 -52,20 -72,38 -81,77 -7,31 -31,58 -52,58 -8,0 -23,-9 -34,-20 z"
       id="path20"
       inkscape:connector-curvature="0" />
    <path
       d="m 2509,2661 c -77,-11 -193,-47 -264,-83 -184,-92 -285,-234 -285,-401 0,-86 21,-138 73,-184 41,-36 125,-58 182,-47 47,9 56,31 23,59 -39,33 -48,58 -48,127 0,117 72,216 184,255 76,27 208,24 263,-4 81,-44 139,-146 150,-267 7,-78 -26,-221 -67,-291 -16,-27 -38,-66 -49,-85 -61,-110 -295,-358 -531,-565 -146,-128 -160,-142 -160,-162 0,-20 11,-17 128,33 208,89 375,120 606,111 157,-6 242,-20 373,-63 136,-44 226,-91 412,-213 23,-15 24,-14 13,5 -18,34 -240,243 -284,267 -22,12 -63,35 -92,50 -63,36 -150,65 -236,81 -88,16 -89,29 -3,114 277,271 393,482 393,713 0,246 -188,465 -458,533 -71,18 -248,27 -323,17 z m 572,-310 c 52,-51 54,-103 9,-155 -41,-46 -80,-54 -125,-26 -47,29 -65,57 -65,100 0,42 21,75 64,101 47,28 73,24 117,-20 z m -37,-342 c 14,-17 26,-37 26,-44 0,-25 -51,-75 -77,-75 -27,0 -83,49 -83,73 0,29 50,77 80,77 19,0 36,-10 54,-31 z"
       id="path22"
       inkscape:connector-curvature="0" />
  </g>
</svg>
